<svg width="355" height="372" viewBox="0 0 355 372" fill="none" xmlns="http://www.w3.org/2000/svg">
<path d="M352.405 211.543C353.213 214.206 354.698 216.87 354.719 219.534C354.87 245.268 354.769 271.003 354.729 296.738C354.729 297.204 354.567 297.67 354.486 298.125C354.224 297.568 353.819 297.032 353.708 296.444C347.079 260.49 313.612 237.227 278.063 243.901C246.759 249.775 224.185 279.288 226.135 311.798C226.034 312.77 225.933 313.742 225.832 314.715C198.68 314.755 171.528 314.796 144.367 314.836C143.912 313.52 143.386 312.233 143.013 310.897C133.231 275.044 89.0123 263.235 62.7701 289.405C55.3734 296.778 51.5235 305.873 49.0175 315.738C43.8337 315.758 38.6499 315.92 33.4762 315.768C23.1592 315.484 17.7228 309.387 15.4694 299.726C10.1846 299.726 5.17263 299.726 0.160636 299.726C0.150531 270.011 0.150531 240.285 0.140427 210.57C0.140427 210.57 176.783 210.662 177.187 210.651C177.187 226.795 177.187 242.372 177.187 258.87C186.352 258.87 194.507 259.062 202.641 258.738C204.844 258.647 207.512 257.533 209.078 255.994C222.881 242.422 236.533 228.709 250.093 214.895C253.175 211.755 256.5 210.287 260.926 210.337C274.911 210.479 288.906 210.337 302.891 210.297C310.46 210.297 318.028 210.297 325.597 210.297C328.668 210.256 331.75 210.206 334.822 210.165C340.693 210.631 346.544 211.087 352.405 211.543Z" fill="#F8C50B"/>
<path d="M226.135 311.798C224.185 279.288 246.759 249.785 278.064 243.901C313.613 237.227 347.08 260.49 353.708 296.444C353.82 297.031 354.214 297.558 354.487 298.125C356.477 317.145 351.97 334.19 339.855 349.25C319.079 375.066 277.447 379.705 251.579 359.074C242.242 351.63 235.442 342.455 230.561 331.689C229.086 325.055 227.61 318.431 226.135 311.798ZM338.844 307.534C338.804 281.728 319.261 259.174 289.694 258.839C264.503 258.556 242.545 280.675 241.858 305.64C241.141 331.729 261.795 355.793 290.594 355.915C316.725 356.026 338.763 334.049 338.844 307.534Z" fill="#030302"/>
<path d="M49.0177 315.727C51.5237 305.863 55.3736 296.768 62.7703 289.395C89.0125 263.225 133.231 275.034 143.013 310.886C143.376 312.223 143.912 313.52 144.367 314.826C144.458 315.15 144.559 315.484 144.65 315.808C144.64 321.095 144.629 326.392 144.619 331.679C142.103 341.776 137.839 350.8 130.291 358.295C104.918 383.513 60.1835 371.724 50.5839 337.178C50.0787 335.355 49.5532 333.542 49.0379 331.729C49.0278 326.402 49.0177 321.065 49.0177 315.727ZM96.864 355.874C114.436 355.702 129.25 342.343 129.139 323.425C129.018 302.541 111.88 290.732 96.2476 291.086C78.7966 291.481 64.2456 305.995 64.3063 323.576C64.3568 341.29 79.13 355.945 96.864 355.874Z" fill="#030202"/>
<path d="M72.7944 209.882L0.140691 209.709C-0.354445 198.934 0.312473 188.33 4.49587 178.202C10.9933 162.443 22.8765 154.31 39.7516 153.814C50.4223 153.5 61.8508 153.814 72.5417 153.834C72.5417 153.844 72.7034 191.216 72.7944 209.882Z" fill="#F9AB1C"/>
<path d="M144.62 331.689C144.63 326.402 144.64 321.105 144.65 315.808C169.973 315.798 195.305 315.818 220.628 315.737C222.366 315.727 224.094 315.069 225.822 314.704C225.923 313.732 226.024 312.76 226.125 311.788C227.6 318.421 229.076 325.045 230.551 331.679C201.914 331.689 173.267 331.689 144.62 331.689Z" fill="#AE7419"/>
<path d="M49.0178 315.728C49.0279 321.065 49.0279 326.402 49.038 331.729C40.4793 331.162 31.6476 331.75 23.4223 329.785C9.37662 326.443 0.716788 314.229 0.171127 299.705C5.18312 299.705 10.185 299.705 15.4799 299.705C17.7333 309.367 23.1697 315.464 33.4867 315.748C38.6503 315.91 43.8341 315.748 49.0178 315.728Z" fill="#AD7418"/>
<path d="M0.140427 209.72L177.187 210.125V210.651C120.428 210.641 0.140427 210.57 0.140427 210.57V209.72Z" fill="#D5B552"/>
<path d="M88.9419 105.302C93.1758 105.515 97.5512 105.12 101.613 106.072C113.224 108.776 120.853 118.802 120.954 130.925C121.055 142.917 120.954 154.918 120.984 166.919C121.005 174.323 124.582 177.928 131.988 178.009C137.657 178.07 143.346 178.293 148.995 177.969C167.224 176.916 179.906 191.095 177.187 210.094L88.6893 209.922C88.6893 176.885 88.6792 143.514 88.6994 110.477C88.6994 108.745 88.8611 107.024 88.9419 105.302Z" fill="#4D4D4D"/>
<path d="M302.901 210.307C282.843 189.829 262.775 169.35 242.04 148.183C238.847 151.657 235.886 155.11 232.673 158.301C228.5 162.443 223.558 162.727 220.183 159.313C216.768 155.85 217.071 151.069 221.285 146.796C231.238 136.698 241.252 126.651 251.336 116.675C255.621 112.442 260.38 112.219 263.826 115.754C267.211 119.217 266.847 123.978 262.654 128.282C259.582 131.432 256.318 134.399 252.882 137.691C254.358 139.23 255.469 140.466 256.641 141.63C278.377 163.132 300.123 184.623 321.848 206.124C323.182 207.441 324.354 208.92 325.597 210.317C318.038 210.307 310.47 210.307 302.901 210.307Z" fill="#050404"/>
<path d="M225.832 314.715C224.104 315.069 222.366 315.737 220.638 315.748C195.315 315.819 169.983 315.808 144.66 315.819C144.569 315.494 144.468 315.17 144.377 314.836C171.519 314.796 198.67 314.755 225.832 314.715Z" fill="#EDC547"/>
<path d="M338.844 307.534C338.763 334.049 316.725 356.026 290.594 355.915C261.785 355.793 241.141 331.729 241.858 305.64C242.545 280.675 264.503 258.556 289.694 258.84C319.261 259.164 338.804 281.728 338.844 307.534ZM322.343 307.473C322.525 289.841 308.903 275.044 290.533 275.287C271.526 275.54 258.511 288.433 258.339 307.656C258.187 325.065 272.385 339.467 290.199 339.498C307.964 339.538 322.333 325.217 322.343 307.473Z" fill="#F6C40E"/>
<path d="M96.864 355.874C79.1301 355.945 64.3568 341.29 64.3063 323.566C64.2457 305.995 78.7966 291.481 96.2476 291.076C111.89 290.722 129.028 302.531 129.139 323.414C129.25 342.353 114.436 355.702 96.864 355.874ZM112.739 323.698C112.84 314.634 105.686 307.311 96.7529 307.331C88.0728 307.352 80.8479 314.532 80.7064 323.273C80.5649 331.983 87.6282 339.335 96.3285 339.528C105.423 339.74 112.638 332.783 112.739 323.698Z" fill="#F5C30E"/>
<path d="M322.343 307.473C322.333 325.227 307.964 339.538 290.2 339.507C272.385 339.477 258.188 325.075 258.339 307.666C258.511 288.443 271.516 275.54 290.533 275.297C308.904 275.044 322.525 289.841 322.343 307.473ZM306.307 307.159C306.246 298.48 298.89 291.117 290.351 291.188C281.863 291.259 274.365 298.763 274.305 307.24C274.244 315.981 281.924 323.556 290.664 323.384C299.345 323.212 306.377 315.9 306.307 307.159Z" fill="#AC7216"/>
<path d="M112.739 323.698C112.638 332.772 105.423 339.73 96.3385 339.528C87.6382 339.335 80.575 331.982 80.7164 323.273C80.8579 314.532 88.0829 307.352 96.7629 307.331C105.685 307.311 112.84 314.644 112.739 323.698Z" fill="#030302"/>
<path d="M306.307 307.159C306.367 315.91 299.334 323.212 290.675 323.384C281.934 323.566 274.254 315.981 274.315 307.24C274.375 298.763 281.873 291.259 290.361 291.188C298.89 291.117 306.246 298.48 306.307 307.159Z" fill="#020101"/>
<path d="M352.405 211.543C346.544 211.087 340.683 210.621 334.833 210.165C334.186 208.909 333.469 207.694 332.913 206.408C311.107 155.404 289.331 104.39 267.494 53.4069C266.019 49.9635 264.503 46.3681 262.23 43.4513C249.073 26.6391 231.531 17.119 210.412 16.562C179.117 15.7315 147.772 16.2278 116.457 16.4404C102.563 16.5316 89.235 29.404 88.9723 43.3196C88.5782 63.9703 88.9218 84.6411 88.9521 105.302C88.8712 107.024 88.7096 108.745 88.7096 110.477C88.6994 143.514 88.6994 177.635 88.6994 210.672C83.3944 210.702 72.7945 210.631 72.7945 210.631C72.7136 191.966 72.6227 172.338 72.5418 153.672C72.5823 118.306 72.6025 82.9295 72.6732 47.5632C72.7237 23.7325 87.5172 5.53279 110.677 0.843612C113.274 0.316966 115.993 0.185304 118.65 0.185304C148.429 0.134665 178.208 -0.250192 207.987 0.266326C235.694 0.742334 258.37 12.2982 275.588 34.1641C277.791 36.9594 279.408 40.3218 280.833 43.6235C304.417 98.5466 327.931 153.5 351.435 208.454C351.849 209.436 352.082 210.51 352.405 211.543Z" fill="#030303"/>
</svg>
