<svg width="32" height="32" viewBox="0 0 32 32" fill="none" xmlns="http://www.w3.org/2000/svg">
<path d="M5.843 -0.000488281C2.60623 -0.000488281 0 2.60575 0 5.84251V26.1565C0 29.3932 2.60623 31.9995 5.843 31.9995H16.853V19.4895H13.545V14.9855H16.853V11.1375C16.853 8.11431 18.8075 5.33851 23.31 5.33851C25.1329 5.33851 26.481 5.51352 26.481 5.51352L26.375 9.71952C26.375 9.71952 25.0001 9.70653 23.5 9.70653C21.8763 9.70653 21.616 10.4546 21.616 11.6965V14.9855H26.5039L26.291 19.4895H21.616V31.9995H26.1569C29.3937 31.9995 31.9999 29.3933 31.9999 26.1565V5.84254C31.9999 2.60578 29.3937 -0.000456281 26.1569 -0.000456281H5.84296L5.843 -0.000488281Z" fill="#F68D10"/>
</svg>
