<svg width="122" height="108" viewBox="0 0 122 108" fill="none" xmlns="http://www.w3.org/2000/svg">
<path d="M109.945 63.3127L91.5628 14.5597H82.3649L63.983 63.3127C63.849 63.6636 63.6116 63.9658 63.3021 64.1794C62.9927 64.393 62.6257 64.5079 62.2495 64.5091H59.7575C59.3813 64.5079 59.0143 64.393 58.7048 64.1794C58.3954 63.9658 58.158 63.6636 58.024 63.3127L39.8422 15.1196L39.6305 14.5597H30.4442L12.0623 63.3127C11.93 63.6644 11.6934 63.9674 11.3841 64.1812C11.0747 64.395 10.7073 64.5094 10.3311 64.5091H0V72.2199H15.0964C16.0376 72.2199 16.9564 71.9335 17.7304 71.3989C18.5045 70.8643 19.097 70.1069 19.429 69.2276L24.4433 55.9318H45.6337L50.648 69.223C50.9796 70.1042 51.5729 70.8634 52.3484 71.399C53.1238 71.9345 54.0446 72.221 54.9875 72.2199H67.0172C67.9583 72.2199 68.8771 71.9335 69.6512 71.3989C70.4252 70.8643 71.0177 70.1069 71.3497 69.2276L76.364 55.9318H97.5544L102.569 69.223C102.901 70.1023 103.493 70.8597 104.267 71.3943C105.041 71.9289 105.96 72.2152 106.901 72.2153H122V64.5091H111.678C111.302 64.5079 110.935 64.393 110.626 64.1794C110.316 63.9658 110.079 63.6636 109.945 63.3127ZM27.3425 48.2256L35.021 27.8555L42.6995 48.2256H27.3425ZM79.2632 48.2256L86.9417 27.8555L94.6203 48.2256H79.2632Z" fill="#F68D10"/>
<path d="M91.7186 0V7.7108H83.6073C83.2308 7.71216 82.8636 7.82746 82.5541 8.04148C82.2446 8.2555 82.0074 8.55819 81.8738 8.90959L66.4888 49.6962H55.5062L40.1166 8.90959C39.983 8.55819 39.7458 8.2555 39.4363 8.04148C39.1268 7.82746 38.7596 7.71216 38.3831 7.7108H30.2788V0H43.1624C44.1036 3.19543e-05 45.0224 0.286425 45.7964 0.821018C46.5705 1.35561 47.163 2.11302 47.495 2.99232L60.9905 38.784L74.4861 2.99232C74.8181 2.11302 75.4106 1.35561 76.1847 0.821018C76.9587 0.286425 77.8775 3.19543e-05 78.8187 0H91.7186Z" fill="#F68D10"/>
<path d="M94.9344 86.6844H94.2363C94.3666 86.6844 94.5155 86.6844 94.7017 86.6844C94.7792 86.679 94.8569 86.679 94.9344 86.6844Z" fill="#F68D10"/>
<path d="M14.7822 92.0208H15.1313C15.5012 92.0208 15.6734 91.9349 15.8037 91.5422L20.3922 79.0154H23.3729L27.9381 91.5422C28.0684 91.9349 28.2429 92.0208 28.6129 92.0208H28.9619V94.43H27.2656C26.1767 94.43 25.7858 94.1489 25.4391 93.1708L24.4804 90.4782H19.2614L18.305 93.1708C17.9583 94.1489 17.5884 94.43 16.4994 94.43H14.7822V92.0208ZM23.8289 88.1341L22.5026 84.2752C22.2188 83.4272 21.893 81.9729 21.893 81.9729H21.8488C21.8488 81.9729 21.523 83.4272 21.2415 84.2752L19.9152 88.1387L23.8289 88.1341Z" fill="#F68D10"/>
<path d="M31.3517 81.4246H29.937V79.0154H36.8523C39.6794 79.0154 41.6595 80.7532 41.6595 83.6618C41.6595 86.4497 39.7446 87.5904 39.1 87.7205V87.76C39.4299 87.9345 39.6962 88.2085 39.8609 88.5429L41.3617 91.5167C41.5944 91.9813 41.969 92.0162 42.4483 92.0162H42.7322V94.4254H41.2314C40.068 94.4254 39.5794 94.2534 39.0791 93.2638L37.092 89.3863C36.7662 88.7776 36.4405 88.6707 35.6354 88.6707H34.1998V94.423H31.3517V81.4246ZM36.4707 86.2453C37.9064 86.2453 38.7533 85.3555 38.7533 83.8129C38.7533 82.2702 37.9064 81.4246 36.5149 81.4246H34.2091V86.2453H36.4707Z" fill="#F68D10"/>
<path d="M43.3325 92.0208H44.005C44.0692 92.0257 44.1337 92.0167 44.194 91.9943C44.2544 91.972 44.3092 91.9369 44.3547 91.8915C44.4003 91.846 44.4354 91.7913 44.4578 91.731C44.4801 91.6707 44.4892 91.6063 44.4843 91.5422L45.4848 79.0154H48.4422L51.616 86.3661C51.986 87.2559 52.3769 88.4291 52.3769 88.4291H52.4281C52.4281 88.4291 52.819 87.2559 53.1889 86.3661L56.3651 79.027H59.3155L60.316 91.5539C60.3369 91.8582 60.4882 92.0324 60.793 92.0324H61.4678V94.4416H59.0107C57.9892 94.4416 57.6402 94.0072 57.5541 92.9664L57.0305 86.1059C56.9806 85.3107 56.9736 84.5135 57.0096 83.7176H56.9654C56.7231 84.5273 56.4405 85.3244 56.1184 86.1059L53.5589 91.7931H51.253L48.6935 86.1059C48.3685 85.3174 48.0851 84.5124 47.8442 83.6944H47.8C47.836 84.498 47.829 85.303 47.7791 86.1059L47.2788 92.9664C47.1927 94.0072 46.8134 94.4416 45.8013 94.4416H43.3325V92.0208Z" fill="#F68D10"/>
<path d="M62.0957 92.0208H62.4331C62.8031 92.0208 62.9776 91.9349 63.1079 91.5422L67.6964 79.0154H70.6747L75.2423 91.5422C75.3726 91.9349 75.5471 92.0208 75.917 92.0208H76.2637V94.43H74.5675C73.4809 94.43 73.0899 94.1489 72.7409 93.1708L71.7846 90.4782H66.5748L65.6185 93.1708C65.2695 94.1489 64.9019 94.43 63.8129 94.43H62.0957V92.0208ZM71.1424 88.1341L69.8161 84.2752C69.5322 83.4272 69.2065 81.9729 69.2065 81.9729H69.1623C69.1623 81.9729 68.8365 83.4272 68.555 84.2752L67.2264 88.1387L71.1424 88.1341Z" fill="#F68D10"/>
<path d="M78.6654 81.9032C78.6724 81.8386 78.6648 81.7733 78.6432 81.7121C78.6216 81.6508 78.5865 81.5952 78.5405 81.5493C78.4945 81.5034 78.4388 81.4684 78.3775 81.4468C78.3161 81.4252 78.2508 81.4176 78.1861 81.4246H77.2554V79.0154H80.0476C81.0923 79.0154 81.5274 79.48 81.5274 80.4906V91.5422C81.5204 91.6068 81.528 91.6721 81.5496 91.7333C81.5713 91.7946 81.6064 91.8502 81.6523 91.8961C81.6983 91.942 81.754 91.977 81.8154 91.9986C81.8767 92.0202 81.9421 92.0278 82.0067 92.0208H85.376C85.4406 92.0278 85.506 92.0202 85.5674 91.9986C85.6287 91.977 85.6844 91.942 85.7304 91.8961C85.7764 91.8502 85.8115 91.7946 85.8331 91.7333C85.8547 91.6721 85.8623 91.6068 85.8553 91.5422V90.613H88.4427V92.9571C88.4427 93.9979 88.0076 94.4323 86.9629 94.4323H80.143C79.1005 94.4323 78.6654 93.9979 78.6654 92.9571V81.9032Z" fill="#F68D10"/>
<path d="M89.4712 92.0208H91.0139V81.4246H89.4712V79.0154H95.2557V81.4246H93.7107V92.0208H95.2557V94.43H89.4712V92.0208Z" fill="#F68D10"/>
<path d="M98.3849 90.3156C98.3849 90.3156 99.9741 92.1393 102.126 92.1393C103.29 92.1393 104.344 91.5097 104.344 90.3156C104.344 87.688 97.0819 87.9041 97.0819 83.1136C97.0819 80.6161 99.2551 78.7714 102.233 78.7714C104.039 78.7714 106.822 79.6171 106.822 81.8102V83.2437H104.262V82.5467C104.262 81.8311 103.239 81.3526 102.217 81.3526C100.912 81.3526 99.9555 82.0263 99.9555 83.002C99.9555 85.6296 107.22 85.1092 107.22 90.1669C107.22 92.6202 105.328 94.7065 102.087 94.7065C101.084 94.7043 100.092 94.4902 99.178 94.0782C98.2637 93.6661 97.447 93.0655 96.7817 92.3159L98.3849 90.3156Z" fill="#F68D10"/>
<path d="M31.3307 100.863H30.5698V99.5667H35.3096C35.8703 99.5667 36.103 99.8129 36.103 100.361V101.623H34.7232V101.121C34.7272 101.086 34.7234 101.051 34.712 101.018C34.7006 100.985 34.6819 100.955 34.6574 100.931C34.6328 100.906 34.6029 100.887 34.57 100.875C34.5371 100.863 34.502 100.859 34.4673 100.863H32.8641V103.212H35.519V104.508H32.8641V107.861H31.3307V100.863Z" fill="#F68D10"/>
<path d="M37.3922 101.121C37.3963 101.086 37.3925 101.051 37.3809 101.018C37.3694 100.984 37.3505 100.954 37.3257 100.929C37.3008 100.905 37.2707 100.886 37.2374 100.874C37.2042 100.863 37.1689 100.859 37.1339 100.863H36.6313V99.5667H38.1298C38.6906 99.5667 38.9256 99.8129 38.9256 100.361V104.859C38.9256 105.944 39.6236 106.576 40.6568 106.576C41.6899 106.576 42.3879 105.944 42.3879 104.847V100.361C42.3879 99.8129 42.6206 99.5667 43.1837 99.5667H44.6798V100.863H44.1772C44.1423 100.859 44.1069 100.863 44.0737 100.874C44.0405 100.886 44.0104 100.905 43.9855 100.929C43.9607 100.954 43.9418 100.984 43.9302 101.018C43.9187 101.051 43.9149 101.086 43.919 101.121V104.905C43.919 106.738 42.6206 108 40.6614 108C38.7022 108 37.3852 106.738 37.3852 104.905L37.3922 101.121Z" fill="#F68D10"/>
<path d="M46.1458 100.863H45.3872V99.5667H49.1101C50.6319 99.5667 51.6952 100.496 51.6952 102.066C51.6952 103.563 50.6668 104.181 50.3154 104.25V104.274C50.4926 104.367 50.6359 104.515 50.7249 104.694L51.5323 106.295C51.6603 106.541 51.8604 106.564 52.1164 106.564H52.27V107.861H51.4625C50.8413 107.861 50.5737 107.768 50.2991 107.24L49.2358 105.149C49.0589 104.824 48.8844 104.766 48.4516 104.766H47.6791V107.861H46.1458V100.863ZM48.8961 103.456C49.6686 103.456 50.1246 102.977 50.1246 102.148C50.1246 101.318 49.6593 100.863 48.9193 100.863H47.6791V103.456H48.8961Z" fill="#F68D10"/>
<path d="M52.7792 106.564H53.2818C53.3165 106.568 53.3516 106.564 53.3845 106.552C53.4174 106.54 53.4473 106.522 53.4719 106.497C53.4965 106.472 53.5151 106.442 53.5265 106.409C53.5379 106.376 53.5418 106.341 53.5377 106.306V99.569H54.9199L58.0657 104.16C58.3938 104.638 58.7638 105.321 58.7638 105.321H58.787C58.787 105.321 58.7033 104.624 58.7033 104.16V100.361C58.7033 99.8129 58.936 99.5667 59.4991 99.5667H60.9975V100.863H60.4949C60.46 100.859 60.4246 100.863 60.3914 100.874C60.3582 100.886 60.3281 100.905 60.3032 100.929C60.2784 100.954 60.2595 100.984 60.2479 101.018C60.2364 101.051 60.2325 101.086 60.2366 101.121V107.858H58.8685L55.7087 103.279C55.4555 102.905 55.2225 102.517 55.0106 102.118H54.9873C54.9873 102.118 55.0688 102.815 55.0688 103.279V107.066C55.0688 107.626 54.8361 107.861 54.273 107.861H52.7769L52.7792 106.564Z" fill="#F68D10"/>
<path d="M61.8354 106.564H62.6661V100.863H61.8354V99.5667H64.9464V100.863H64.1157V106.564H64.9464V107.861H61.8354V106.564Z" fill="#F68D10"/>
<path d="M68.4457 100.863H67.1706C67.1357 100.859 67.1003 100.863 67.0671 100.874C67.0339 100.886 67.0037 100.905 66.9788 100.929C66.954 100.954 66.9351 100.984 66.9236 101.018C66.912 101.051 66.9082 101.086 66.9123 101.121V101.623H65.5674V100.305C65.5674 99.7572 65.7535 99.5574 66.3166 99.5574H72.1058C72.6665 99.5574 72.855 99.7572 72.855 100.305V101.613H71.5078V101.112C71.5119 101.077 71.508 101.041 71.4965 101.008C71.485 100.975 71.4661 100.945 71.4412 100.92C71.4164 100.895 71.3862 100.877 71.353 100.865C71.3198 100.853 71.2844 100.85 71.2495 100.854H69.9744V107.851H68.4433L68.4457 100.863Z" fill="#F68D10"/>
<path d="M74.0976 101.121C74.1018 101.086 74.0979 101.05 74.0861 101.016C74.0743 100.983 74.055 100.952 74.0296 100.927C74.0042 100.903 73.9734 100.884 73.9396 100.873C73.9058 100.861 73.8699 100.858 73.8346 100.863H73.332V99.5667H74.8282C75.3913 99.5667 75.624 99.8129 75.624 100.361V104.859C75.624 105.944 76.322 106.576 77.3551 106.576C78.3882 106.576 79.0863 105.944 79.0863 104.847V100.361C79.0863 99.8129 79.3189 99.5667 79.882 99.5667H81.3805V100.863H80.8779C80.843 100.859 80.8076 100.863 80.7744 100.874C80.7412 100.886 80.7111 100.905 80.6862 100.929C80.6613 100.954 80.6424 100.984 80.6309 101.018C80.6194 101.051 80.6155 101.086 80.6196 101.121V104.905C80.6196 106.738 79.3213 108 77.3621 108C75.4029 108 74.0882 106.738 74.0882 104.905L74.0976 101.121Z" fill="#F68D10"/>
<path d="M82.8488 100.863H82.0879V99.5667H85.8108C87.3326 99.5667 88.3959 100.496 88.3959 102.066C88.3959 103.563 87.3675 104.181 87.0161 104.25V104.274C87.1928 104.368 87.3358 104.515 87.4256 104.694L88.233 106.295C88.361 106.541 88.5588 106.564 88.8171 106.564H88.959V107.861H88.1539C87.5327 107.861 87.2627 107.768 86.9905 107.24L85.9248 105.149C85.7503 104.824 85.5735 104.766 85.1407 104.766H84.3705V107.861H82.8371L82.8488 100.863ZM85.5991 103.456C86.3692 103.456 86.8253 102.977 86.8253 102.148C86.8253 101.318 86.3599 100.863 85.6223 100.863H84.3821V103.456H85.5991Z" fill="#F68D10"/>
<path d="M90.2433 100.863H89.4824V99.5667H94.5014C95.0528 99.5667 95.2972 99.8129 95.2972 100.361V101.623H93.9011V101.121C93.9052 101.086 93.9013 101.051 93.8898 101.018C93.8783 100.984 93.8594 100.954 93.8345 100.929C93.8097 100.905 93.7795 100.886 93.7463 100.874C93.7131 100.863 93.6777 100.859 93.6428 100.863H91.7813V103.038H94.4711V104.334H91.7767V106.306C91.7726 106.341 91.7764 106.376 91.7878 106.409C91.7992 106.442 91.8179 106.472 91.8425 106.497C91.8671 106.522 91.897 106.54 91.9299 106.552C91.9628 106.564 91.9979 106.568 92.0326 106.564H93.9523C93.9872 106.568 94.0225 106.564 94.0557 106.553C94.0889 106.541 94.1191 106.523 94.144 106.498C94.1688 106.473 94.1877 106.443 94.1993 106.41C94.2108 106.377 94.2146 106.341 94.2105 106.306V105.805H95.6066V107.066C95.6066 107.626 95.36 107.861 94.8109 107.861H91.0391C90.4783 107.861 90.2433 107.628 90.2433 107.066V100.863Z" fill="#F68D10"/>
</svg>
