<svg width="30" height="30" viewBox="0 0 30 30" fill="none" xmlns="http://www.w3.org/2000/svg">
<path d="M13.7 5.97571C14.123 5.92619 14.5564 5.90002 15 5.90002C23.2727 5.90002 28 15 28 15C28 15 27.1007 16.7312 25.4 18.6836M8.1266 8.1394C4.16423 10.8339 2 15 2 15C2 15 6.72727 24.1 15 24.1C17.6654 24.1 19.9626 23.1554 21.8524 21.8749L8.1266 8.1394Z" stroke="black" stroke-width="3" stroke-linecap="round" stroke-linejoin="round"/>
<path d="M13.7 5.97571C14.123 5.92619 14.5564 5.90002 15 5.90002C23.2727 5.90002 28 15 28 15C28 15 27.1007 16.7312 25.4 18.6836M8.1266 8.1394C4.16423 10.8339 2 15 2 15C2 15 6.72727 24.1 15 24.1C17.6654 24.1 19.9626 23.1554 21.8524 21.8749L8.1266 8.1394Z" stroke="#F68D10" stroke-width="3" stroke-linecap="round" stroke-linejoin="round"/>
<path d="M17.5996 17.9071C16.9096 18.5246 15.9985 18.9001 14.9996 18.9001C12.8456 18.9001 11.0996 17.1541 11.0996 15.0001C11.0996 13.9293 11.5311 12.9594 12.2297 12.2546" stroke="black" stroke-width="3" stroke-linecap="round" stroke-linejoin="round"/>
<path d="M17.5996 17.9071C16.9096 18.5246 15.9985 18.9001 14.9996 18.9001C12.8456 18.9001 11.0996 17.1541 11.0996 15.0001C11.0996 13.9293 11.5311 12.9594 12.2297 12.2546" stroke="#F68D10" stroke-width="3" stroke-linecap="round" stroke-linejoin="round"/>
<path d="M2 2L28 28" stroke="black" stroke-width="3" stroke-linecap="round" stroke-linejoin="round"/>
<path d="M2 2L28 28" stroke="#F68D10" stroke-width="3" stroke-linecap="round" stroke-linejoin="round"/>
</svg>
