<svg width="30" height="30" viewBox="0 0 30 30" fill="none" xmlns="http://www.w3.org/2000/svg">
<path fill-rule="evenodd" clip-rule="evenodd" d="M9.7498 25.4995C10.9924 25.4995 11.9998 26.5068 11.9998 27.7494C11.9998 28.9921 10.9924 29.9994 9.7498 29.9994C8.50719 29.9994 7.49985 28.9921 7.49985 27.7494C7.49985 26.5068 8.50719 25.4995 9.7498 25.4995ZM23.2495 25.4995C24.4921 25.4995 25.4995 26.5068 25.4995 27.7494C25.4995 28.9921 24.4921 29.9994 23.2495 29.9994C22.0069 29.9994 20.9996 28.9921 20.9996 27.7494C20.9996 26.5068 22.0069 25.4995 23.2495 25.4995ZM1.49997 0H4.49991C5.1833 0 5.77234 0.460251 5.94746 1.10659L5.98244 1.27189L6.70982 5.99988H28.4994C29.399 5.99988 30.0818 6.78088 29.9921 7.65036L29.9637 7.82524L27.4858 18.9758C27.0481 20.9452 25.3583 22.371 23.3664 22.4913L23.093 22.4995H10.0736C7.94137 22.4995 6.11533 21.0061 5.67386 18.9445L5.62597 18.6839L3.21306 2.99994H1.49997C0.671559 2.99994 0 2.32838 0 1.49997C0 0.730731 0.579049 0.0967372 1.32504 0.0100913L1.49997 0H4.49991H1.49997ZM26.6295 8.99982H7.17135L8.59102 18.2277C8.69494 18.9032 9.23941 19.4154 9.90485 19.4902L10.0736 19.4996H23.093C23.7375 19.4996 24.3027 19.0893 24.5098 18.4923L24.5573 18.325L26.6295 8.99982Z" fill="#121212"/>
</svg>
