<svg width="113" height="332" viewBox="0 0 113 332" fill="none" xmlns="http://www.w3.org/2000/svg">
<path d="M113 326.22C110.322 330.595 106.28 331.74 101.379 331.719C71.459 331.618 41.5386 331.679 11.6081 331.669C2.73607 331.669 0.0582695 329.005 0.0582695 320.133C0.0481646 217.214 0.0481745 114.306 0.0683842 11.3867C0.0683842 9.66499 0.0986912 7.88249 0.502884 6.22153C1.43253 2.38309 4.0699 0.317019 7.97036 0.246125C11.8708 0.17523 14.6698 2.1299 15.6298 5.94808C16.1957 8.19646 16.2361 10.6271 16.2361 12.9768C16.2664 111.784 16.2563 210.601 16.2563 309.408C16.2563 311.261 16.2563 313.125 16.2563 315.444C18.3985 315.444 20.086 315.444 21.7634 315.444C48.5412 315.444 75.3089 315.525 102.077 315.373C107.099 315.343 110.837 316.76 112.98 321.47C113 323.06 113 324.64 113 326.22Z" fill="#060606"/>
<path d="M113 293.061C110.938 298.004 106.957 299.411 101.975 299.391C82.4429 299.33 62.9203 299.411 43.3877 299.341C35.0816 299.31 32.4442 296.566 32.4341 288.19C32.4139 268.613 32.4139 249.046 32.4341 229.469C32.4442 220.901 35.0816 218.308 43.8121 218.308C63.0315 218.288 82.2408 218.409 101.45 218.237C106.452 218.197 110.322 219.594 112.99 223.899C113 246.949 113 270 113 293.061Z" fill="#A67C53"/>
<path d="M113 99.7619C110.322 104.117 106.29 105.363 101.4 105.332C82.1803 105.221 62.971 105.302 43.7517 105.282C35.1423 105.271 32.4444 102.598 32.4444 94.0194C32.4241 74.4424 32.4241 54.8653 32.4444 35.2984C32.4545 26.9733 35.1221 24.2388 43.4586 24.2084C62.9912 24.1578 82.5239 24.2287 102.046 24.1679C107.038 24.1477 110.989 25.6365 113 30.589C113 53.65 113 76.711 113 99.7619Z" fill="#A67C53"/>
<path d="M113 196.412C110.595 200.655 107.079 202.296 102.107 202.245C82.4328 202.043 62.7486 202.174 43.0745 202.154C35.0311 202.144 32.4443 199.521 32.4342 191.317C32.414 171.599 32.4039 151.87 32.4342 132.151C32.4443 123.947 34.9503 121.466 43.1655 121.456C62.8396 121.435 82.5238 121.567 102.198 121.365C107.169 121.314 110.696 122.894 112.99 127.249C113 150.3 113 173.351 113 196.412Z" fill="#A57C52"/>
</svg>
