<svg width="32" height="38" viewBox="0 0 32 38" fill="none" xmlns="http://www.w3.org/2000/svg">
<path fill-rule="evenodd" clip-rule="evenodd" d="M2.80002 34.2C1.47199 34.2 0.583799 32.866 1.02703 31.6514L1.11338 31.4503L3.29218 27.0597C4.11699 25.3976 4.58593 23.5819 4.67147 21.7302L4.68575 21.1118V15.2C4.68575 9.55118 8.76341 4.86196 14.1147 3.95756L14.1144 1.9C14.1144 0.850659 14.9586 0 16.0001 0C17.0416 0 17.8858 0.850659 17.8858 1.9L17.8874 3.95788C23.0891 4.83791 27.087 9.29427 27.3051 14.7316L27.3145 15.2V21.1118C27.3145 22.97 27.7009 24.8054 28.4463 26.5001L28.708 27.0597L30.8868 31.4503C31.4807 32.6471 30.6937 34.0442 29.4173 34.1879L29.2002 34.2H19.7716C19.7716 36.2987 18.083 38 16.0001 38C13.9172 38 12.2287 36.2987 12.2287 34.2H2.80002ZM16.0001 7.6C11.9605 7.6 8.6626 10.7995 8.46643 14.8207L8.4572 15.2V21.1118C8.4572 23.5452 7.94174 25.9481 6.94825 28.1606L6.66547 28.7591L5.85119 30.4H26.149L25.3347 28.7591C24.2546 26.5826 23.6492 24.2011 23.5558 21.7746L23.543 21.1118V15.2C23.543 11.0026 20.1659 7.6 16.0001 7.6V7.6Z" fill="#1D1D1D"/>
</svg>
