<svg width="122" height="108" viewBox="0 0 122 108" fill="none" xmlns="http://www.w3.org/2000/svg">
<path d="M109.945 63.3127L91.5628 14.5597H82.3649L63.983 63.3127C63.849 63.6636 63.6116 63.9658 63.3021 64.1794C62.9927 64.393 62.6257 64.5079 62.2495 64.5091H59.7575C59.3813 64.5079 59.0143 64.393 58.7048 64.1794C58.3954 63.9658 58.158 63.6636 58.024 63.3127L39.8422 15.1196L39.6305 14.5597H30.4442L12.0623 63.3127C11.93 63.6644 11.6934 63.9674 11.3841 64.1812C11.0747 64.395 10.7073 64.5094 10.3311 64.5091H0V72.2199H15.0964C16.0376 72.2199 16.9564 71.9335 17.7304 71.3989C18.5045 70.8643 19.097 70.1069 19.429 69.2276L24.4433 55.9318H45.6337L50.648 69.223C50.9796 70.1042 51.5729 70.8634 52.3484 71.399C53.1238 71.9345 54.0446 72.221 54.9875 72.2199H67.0172C67.9583 72.2199 68.8771 71.9335 69.6512 71.3989C70.4252 70.8643 71.0177 70.1069 71.3497 69.2276L76.364 55.9318H97.5544L102.569 69.223C102.901 70.1023 103.493 70.8597 104.267 71.3943C105.041 71.9289 105.96 72.2152 106.901 72.2153H122V64.5091H111.678C111.302 64.5079 110.935 64.393 110.626 64.1794C110.316 63.9658 110.079 63.6636 109.945 63.3127ZM27.3425 48.2256L35.021 27.8555L42.6995 48.2256H27.3425ZM79.2632 48.2256L86.9417 27.8555L94.6203 48.2256H79.2632Z" fill="white"/>
<path d="M91.7187 0V7.7108H83.6074C83.2309 7.71216 82.8637 7.82746 82.5543 8.04148C82.2448 8.2555 82.0076 8.55819 81.8739 8.90959L66.489 49.6962H55.5064L40.1167 8.90959C39.9831 8.55819 39.7459 8.2555 39.4364 8.04148C39.1269 7.82746 38.7597 7.71216 38.3833 7.7108H30.2789V0H43.1625C44.1037 3.19543e-05 45.0225 0.286425 45.7966 0.821018C46.5706 1.35561 47.1631 2.11302 47.4951 2.99232L60.9907 38.784L74.4862 2.99232C74.8183 2.11302 75.4108 1.35561 76.1848 0.821018C76.9588 0.286425 77.8776 3.19543e-05 78.8188 0H91.7187Z" fill="white"/>
<path d="M94.9344 86.6844H94.2363C94.3666 86.6844 94.5155 86.6844 94.7017 86.6844C94.7792 86.679 94.8569 86.679 94.9344 86.6844Z" fill="white"/>
<path d="M14.7823 92.0208H15.1314C15.5013 92.0208 15.6735 91.9349 15.8038 91.5422L20.3923 79.0154H23.373L27.9382 91.5422C28.0685 91.9349 28.243 92.0208 28.613 92.0208H28.962V94.43H27.2658C26.1768 94.43 25.7859 94.1489 25.4392 93.1708L24.4805 90.4782H19.2615L18.3052 93.1708C17.9585 94.1489 17.5885 94.43 16.4995 94.43H14.7823V92.0208ZM23.829 88.1341L22.5027 84.2752C22.2189 83.4272 21.8931 81.9729 21.8931 81.9729H21.8489C21.8489 81.9729 21.5232 83.4272 21.2416 84.2752L19.9153 88.1387L23.829 88.1341Z" fill="white"/>
<path d="M31.3516 81.4246H29.9369V79.0154H36.8522C39.6793 79.0154 41.6594 80.7532 41.6594 83.6618C41.6594 86.4497 39.7445 87.5904 39.0999 87.7205V87.76C39.4298 87.9345 39.696 88.2085 39.8608 88.5429L41.3616 91.5167C41.5943 91.9813 41.9689 92.0162 42.4482 92.0162H42.7321V94.4254H41.2313C40.0679 94.4254 39.5792 94.2534 39.079 93.2638L37.0919 89.3863C36.7661 88.7776 36.4404 88.6707 35.6353 88.6707H34.1996V94.423H31.3516V81.4246ZM36.4706 86.2453C37.9063 86.2453 38.7532 85.3555 38.7532 83.8129C38.7532 82.2702 37.9063 81.4246 36.5148 81.4246H34.2089V86.2453H36.4706Z" fill="white"/>
<path d="M43.3325 92.0208H44.005C44.0692 92.0257 44.1337 92.0167 44.194 91.9943C44.2544 91.972 44.3092 91.9369 44.3547 91.8915C44.4003 91.846 44.4354 91.7913 44.4578 91.731C44.4801 91.6707 44.4892 91.6063 44.4843 91.5422L45.4848 79.0154H48.4422L51.616 86.3661C51.986 87.2559 52.3769 88.4291 52.3769 88.4291H52.4281C52.4281 88.4291 52.819 87.2559 53.1889 86.3661L56.3651 79.027H59.3155L60.316 91.5539C60.3369 91.8582 60.4882 92.0324 60.793 92.0324H61.4678V94.4416H59.0107C57.9892 94.4416 57.6402 94.0072 57.5541 92.9664L57.0305 86.1059C56.9806 85.3107 56.9736 84.5135 57.0096 83.7176H56.9654C56.7231 84.5273 56.4405 85.3244 56.1184 86.1059L53.5589 91.7931H51.253L48.6935 86.1059C48.3685 85.3174 48.0851 84.5124 47.8442 83.6944H47.8C47.836 84.498 47.829 85.303 47.7791 86.1059L47.2788 92.9664C47.1927 94.0072 46.8134 94.4416 45.8013 94.4416H43.3325V92.0208Z" fill="white"/>
<path d="M62.0959 92.0208H62.4333C62.8033 92.0208 62.9778 91.9349 63.1081 91.5422L67.6966 79.0154H70.675L75.2425 91.5422C75.3728 91.9349 75.5473 92.0208 75.9173 92.0208H76.264V94.43H74.5677C73.4811 94.43 73.0902 94.1489 72.7412 93.1708L71.7848 90.4782H66.5751L65.6188 93.1708C65.2697 94.1489 64.9021 94.43 63.8131 94.43H62.0959V92.0208ZM71.1426 88.1341L69.8164 84.2752C69.5325 83.4272 69.2067 81.9729 69.2067 81.9729H69.1625C69.1625 81.9729 68.8368 83.4272 68.5552 84.2752L67.2266 88.1387L71.1426 88.1341Z" fill="white"/>
<path d="M78.6652 81.9032C78.6722 81.8386 78.6646 81.7733 78.6429 81.7121C78.6213 81.6508 78.5862 81.5952 78.5403 81.5493C78.4943 81.5034 78.4386 81.4684 78.3772 81.4468C78.3159 81.4252 78.2505 81.4176 78.1859 81.4246H77.2551V79.0154H80.0473C81.0921 79.0154 81.5272 79.48 81.5272 80.4906V91.5422C81.5202 91.6068 81.5278 91.6721 81.5494 91.7333C81.571 91.7946 81.6061 91.8502 81.6521 91.8961C81.6981 91.942 81.7538 91.977 81.8151 91.9986C81.8765 92.0202 81.9418 92.0278 82.0065 92.0208H85.3757C85.4404 92.0278 85.5058 92.0202 85.5671 91.9986C85.6284 91.977 85.6842 91.942 85.7301 91.8961C85.7761 91.8502 85.8112 91.7946 85.8328 91.7333C85.8544 91.6721 85.862 91.6068 85.8551 91.5422V90.613H88.4425V92.9571C88.4425 93.9979 88.0074 94.4323 86.9626 94.4323H80.1427C79.1003 94.4323 78.6652 93.9979 78.6652 92.9571V81.9032Z" fill="white"/>
<path d="M89.4709 92.0208H91.0136V81.4246H89.4709V79.0154H95.2554V81.4246H93.7104V92.0208H95.2554V94.43H89.4709V92.0208Z" fill="white"/>
<path d="M98.3852 90.3156C98.3852 90.3156 99.9744 92.1393 102.127 92.1393C103.29 92.1393 104.344 91.5097 104.344 90.3156C104.344 87.688 97.0821 87.9041 97.0821 83.1136C97.0821 80.6161 99.2554 78.7714 102.234 78.7714C104.039 78.7714 106.822 79.6171 106.822 81.8102V83.2437H104.263V82.5467C104.263 81.8311 103.239 81.3526 102.217 81.3526C100.912 81.3526 99.9558 82.0263 99.9558 83.002C99.9558 85.6296 107.22 85.1092 107.22 90.1669C107.22 92.6202 105.328 94.7065 102.087 94.7065C101.084 94.7043 100.093 94.4902 99.1783 94.0782C98.2639 93.6661 97.4473 93.0655 96.782 92.3159L98.3852 90.3156Z" fill="white"/>
<path d="M31.3307 100.863H30.5698V99.5667H35.3096C35.8703 99.5667 36.103 99.8129 36.103 100.361V101.623H34.7232V101.121C34.7272 101.086 34.7234 101.051 34.712 101.018C34.7006 100.985 34.6819 100.955 34.6574 100.931C34.6328 100.906 34.6029 100.887 34.57 100.875C34.5371 100.863 34.502 100.859 34.4673 100.863H32.8641V103.212H35.519V104.508H32.8641V107.861H31.3307V100.863Z" fill="white"/>
<path d="M37.392 101.121C37.3961 101.086 37.3922 101.051 37.3807 101.018C37.3692 100.984 37.3503 100.954 37.3254 100.929C37.3006 100.905 37.2704 100.886 37.2372 100.874C37.204 100.863 37.1686 100.859 37.1337 100.863H36.6311V99.5667H38.1296C38.6903 99.5667 38.9254 99.8129 38.9254 100.361V104.859C38.9254 105.944 39.6234 106.576 40.6565 106.576C41.6896 106.576 42.3877 105.944 42.3877 104.847V100.361C42.3877 99.8129 42.6203 99.5667 43.1834 99.5667H44.6796V100.863H44.177C44.1421 100.859 44.1067 100.863 44.0735 100.874C44.0403 100.886 44.0101 100.905 43.9853 100.929C43.9604 100.954 43.9415 100.984 43.93 101.018C43.9185 101.051 43.9146 101.086 43.9187 101.121V104.905C43.9187 106.738 42.6203 108 40.6612 108C38.702 108 37.385 106.738 37.385 104.905L37.392 101.121Z" fill="white"/>
<path d="M46.1455 100.863H45.387V99.5667H49.1099C50.6316 99.5667 51.695 100.496 51.695 102.066C51.695 103.563 50.6665 104.181 50.3152 104.25V104.274C50.4924 104.367 50.6356 104.515 50.7247 104.694L51.5321 106.295C51.6601 106.541 51.8602 106.564 52.1161 106.564H52.2697V107.861H51.4623C50.841 107.861 50.5735 107.768 50.2989 107.24L49.2355 105.149C49.0587 104.824 48.8842 104.766 48.4514 104.766H47.6789V107.861H46.1455V100.863ZM48.8958 103.456C49.6683 103.456 50.1244 102.977 50.1244 102.148C50.1244 101.318 49.659 100.863 48.9191 100.863H47.6789V103.456H48.8958Z" fill="white"/>
<path d="M52.7794 106.564H53.282C53.3168 106.568 53.3519 106.564 53.3848 106.552C53.4177 106.54 53.4475 106.522 53.4721 106.497C53.4967 106.472 53.5154 106.442 53.5268 106.409C53.5382 106.376 53.542 106.341 53.538 106.306V99.569H54.9201L58.066 104.16C58.3941 104.638 58.764 105.321 58.764 105.321H58.7873C58.7873 105.321 58.7035 104.624 58.7035 104.16V100.361C58.7035 99.8129 58.9362 99.5667 59.4993 99.5667H60.9978V100.863H60.4952C60.4603 100.859 60.4249 100.863 60.3917 100.874C60.3585 100.886 60.3283 100.905 60.3035 100.929C60.2786 100.954 60.2597 100.984 60.2482 101.018C60.2366 101.051 60.2328 101.086 60.2369 101.121V107.858H58.8687L55.7089 103.279C55.4557 102.905 55.2227 102.517 55.0109 102.118H54.9876C54.9876 102.118 55.069 102.815 55.069 103.279V107.066C55.069 107.626 54.8363 107.861 54.2732 107.861H52.7771L52.7794 106.564Z" fill="white"/>
<path d="M61.8354 106.564H62.6661V100.863H61.8354V99.5667H64.9464V100.863H64.1157V106.564H64.9464V107.861H61.8354V106.564Z" fill="white"/>
<path d="M68.4459 100.863H67.1708C67.1359 100.859 67.1005 100.863 67.0673 100.874C67.0341 100.886 67.0039 100.905 66.9791 100.929C66.9542 100.954 66.9353 100.984 66.9238 101.018C66.9123 101.051 66.9084 101.086 66.9125 101.121V101.623H65.5676V100.305C65.5676 99.7572 65.7538 99.5574 66.3169 99.5574H72.106C72.6668 99.5574 72.8552 99.7572 72.8552 100.305V101.613H71.508V101.112C71.5121 101.077 71.5083 101.041 71.4967 101.008C71.4852 100.975 71.4663 100.945 71.4414 100.92C71.4166 100.895 71.3864 100.877 71.3532 100.865C71.32 100.853 71.2846 100.85 71.2497 100.854H69.9746V107.851H68.4436L68.4459 100.863Z" fill="white"/>
<path d="M74.0978 101.121C74.1021 101.086 74.0981 101.05 74.0864 101.016C74.0746 100.983 74.0552 100.952 74.0298 100.927C74.0044 100.903 73.9737 100.884 73.9399 100.873C73.9061 100.861 73.8701 100.858 73.8349 100.863H73.3323V99.5667H74.8284C75.3915 99.5667 75.6242 99.8129 75.6242 100.361V104.859C75.6242 105.944 76.3222 106.576 77.3554 106.576C78.3885 106.576 79.0865 105.944 79.0865 104.847V100.361C79.0865 99.8129 79.3192 99.5667 79.8823 99.5667H81.3808V100.863H80.8782C80.8433 100.859 80.8079 100.863 80.7747 100.874C80.7415 100.886 80.7113 100.905 80.6864 100.929C80.6616 100.954 80.6427 100.984 80.6312 101.018C80.6196 101.051 80.6158 101.086 80.6199 101.121V104.905C80.6199 106.738 79.3215 108 77.3623 108C75.4031 108 74.0885 106.738 74.0885 104.905L74.0978 101.121Z" fill="white"/>
<path d="M82.8488 100.863H82.0879V99.5667H85.8108C87.3326 99.5667 88.3959 100.496 88.3959 102.066C88.3959 103.563 87.3675 104.181 87.0161 104.25V104.274C87.1928 104.368 87.3358 104.515 87.4256 104.694L88.233 106.295C88.361 106.541 88.5588 106.564 88.8171 106.564H88.959V107.861H88.1539C87.5327 107.861 87.2627 107.768 86.9905 107.24L85.9248 105.149C85.7503 104.824 85.5735 104.766 85.1407 104.766H84.3705V107.861H82.8371L82.8488 100.863ZM85.5991 103.456C86.3692 103.456 86.8253 102.977 86.8253 102.148C86.8253 101.318 86.3599 100.863 85.6223 100.863H84.3821V103.456H85.5991Z" fill="white"/>
<path d="M90.2435 100.863H89.4827V99.5667H94.5016C95.0531 99.5667 95.2974 99.8129 95.2974 100.361V101.623H93.9013V101.121C93.9054 101.086 93.9016 101.051 93.89 101.018C93.8785 100.984 93.8596 100.954 93.8348 100.929C93.8099 100.905 93.7797 100.886 93.7465 100.874C93.7133 100.863 93.6779 100.859 93.643 100.863H91.7816V103.038H94.4714V104.334H91.7769V106.306C91.7729 106.341 91.7767 106.376 91.7881 106.409C91.7995 106.442 91.8182 106.472 91.8428 106.497C91.8673 106.522 91.8972 106.54 91.9301 106.552C91.963 106.564 91.9981 106.568 92.0329 106.564H93.9525C93.9874 106.568 94.0228 106.564 94.056 106.553C94.0892 106.541 94.1194 106.523 94.1442 106.498C94.1691 106.473 94.188 106.443 94.1995 106.41C94.211 106.377 94.2149 106.341 94.2108 106.306V105.805H95.6069V107.066C95.6069 107.626 95.3602 107.861 94.8111 107.861H91.0393C90.4785 107.861 90.2435 107.628 90.2435 107.066V100.863Z" fill="white"/>
</svg>
